<?xml version="1.0" standalone="no"?>
<!DOCTYPE svg PUBLIC "-//W3C//DTD SVG 20010904//EN"
 "http://www.w3.org/TR/2001/REC-SVG-20010904/DTD/svg10.dtd">
<svg version="1.0" xmlns="http://www.w3.org/2000/svg"
 width="640.000000pt" height="358.000000pt" viewBox="0 0 640.000000 358.000000"
 preserveAspectRatio="xMidYMid meet">

<g transform="translate(0.000000,358.000000) scale(0.100000,-0.100000)"
fill="#000000" stroke="none">
<path d="M0 1790 l0 -1790 3200 0 3200 0 0 1790 0 1790 -3200 0 -3200 0 0
-1790z m2092 1120 c10 -12 18 -28 18 -36 0 -21 -28 -17 -40 6 -13 25 -52 35
-79 20 -36 -19 -24 -40 37 -66 98 -44 114 -73 66 -121 -22 -22 -32 -25 -77
-20 -37 3 -56 11 -69 27 -38 46 -13 69 28 25 26 -28 61 -32 90 -11 28 21 9 47
-52 69 -65 24 -74 33 -74 73 0 26 6 37 28 49 37 21 101 13 124 -15z m966 -83
c1 -60 7 -107 12 -107 6 0 10 -7 10 -15 0 -18 -31 -20 -48 -3 -8 8 -12 51 -12
126 0 103 2 113 18 110 15 -3 17 -18 20 -111z m450 90 c4 -22 -27 -35 -38 -16
-10 15 7 42 24 36 6 -2 12 -11 14 -20z m-188 -70 l55 -82 3 83 c3 74 5 82 22
82 19 0 20 -7 20 -120 0 -153 -10 -156 -95 -32 l-60 87 -3 -87 c-3 -80 -5 -88
-22 -88 -19 0 -20 7 -20 120 0 118 0 120 23 120 16 0 36 -21 77 -83z m-1036 1
c15 -23 25 -142 13 -154 -4 -4 -13 -1 -21 5 -11 9 -20 10 -35 2 -30 -17 -66
-13 -86 9 -36 40 5 90 76 90 24 0 30 4 27 18 -4 19 -68 31 -68 13 0 -6 -9 -11
-20 -11 -24 0 -25 8 -3 32 25 28 98 25 117 -4z m183 10 c10 -8 17 -8 25 0 17
17 64 15 82 -4 22 -22 23 -164 1 -164 -12 0 -15 13 -15 59 0 75 -6 91 -36 91
-32 0 -42 -24 -43 -107 -1 -31 -5 -43 -16 -43 -12 0 -15 14 -15 63 0 73 -9 90
-41 85 -22 -3 -24 -9 -29 -73 -4 -56 -8 -70 -22 -73 -16 -3 -18 6 -18 85 l0
89 57 2 c31 1 63 -4 70 -10z m205 -54 c3 -74 21 -99 56 -78 13 8 18 27 20 78
2 57 6 67 20 64 14 -3 17 -17 20 -86 2 -70 0 -83 -14 -89 -10 -4 -19 -2 -22 5
-2 8 -10 8 -27 0 -34 -15 -74 -2 -85 28 -11 29 -13 127 -3 137 21 22 32 3 35
-59z m283 49 c16 -16 35 -55 35 -74 0 -5 -29 -9 -65 -9 -47 0 -65 -4 -65 -13
0 -35 57 -50 80 -22 14 17 40 20 40 5 0 -21 -45 -50 -77 -50 -73 0 -110 93
-62 154 24 31 87 36 114 9z m553 -86 c2 -56 -2 -105 -8 -117 -13 -24 -60 -28
-60 -5 0 8 7 15 15 15 12 0 15 18 15 106 0 95 2 105 18 102 14 -3 17 -17 20
-101z m187 78 c56 -55 18 -155 -60 -155 -51 0 -85 36 -85 90 0 81 89 121 145
65z m95 13 c0 -9 3 -9 12 0 20 20 58 15 58 -8 0 -13 -5 -18 -15 -13 -32 12
-55 -26 -55 -89 0 -51 -2 -59 -17 -56 -15 3 -19 16 -21 77 -2 41 -1 80 2 88 7
16 36 17 36 1z m227 -3 c24 -17 39 -71 28 -104 -19 -61 -96 -81 -140 -36 -32
31 -34 91 -4 129 24 30 81 36 116 11z m181 3 c9 -9 12 -9 12 0 0 7 7 12 15 12
12 0 15 -18 15 -104 0 -102 -1 -105 -27 -126 -21 -16 -37 -20 -61 -16 -38 6
-62 22 -62 42 0 19 19 18 41 -2 25 -23 67 -11 75 22 8 32 1 39 -25 25 -27 -15
-68 -4 -86 22 -22 31 -19 93 5 117 22 22 79 27 98 8z m221 -14 c12 -15 21 -37
21 -50 0 -23 -3 -24 -65 -24 -67 0 -77 -7 -49 -34 20 -20 48 -20 68 -1 16 17
46 20 46 6 0 -18 -53 -51 -81 -51 -15 0 -40 11 -56 24 -37 32 -39 93 -4 130
34 36 92 36 120 0z m-3853 -516 c12 -5 27 -21 33 -34 9 -20 8 -24 -7 -24 -10
0 -25 9 -35 20 -25 30 -80 27 -106 -6 -45 -58 -13 -154 52 -154 17 0 40 9 53
21 12 11 30 19 41 17 16 -3 14 -8 -14 -36 -27 -27 -39 -32 -80 -32 -41 0 -54
5 -75 28 -32 33 -44 89 -29 135 25 75 93 102 167 65z m1402 -91 c1 -60 7 -107
12 -107 6 0 10 -7 10 -16 0 -11 -8 -14 -27 -12 l-28 3 -3 109 c-3 117 1 140
21 134 8 -3 13 -37 15 -111z m90 0 c1 -60 7 -107 12 -107 6 0 10 -7 10 -16 0
-11 -8 -14 -27 -12 l-28 3 -3 109 c-3 117 1 140 21 134 8 -3 13 -37 15 -111z
m560 66 c3 -41 3 -41 32 -30 57 22 109 -36 96 -106 -10 -53 -33 -67 -104 -65
l-62 2 0 116 c0 64 3 120 7 124 15 15 28 -3 31 -41z m1230 -66 c1 -60 7 -107
12 -107 6 0 10 -7 10 -15 0 -20 -46 -20 -54 1 -8 22 -8 219 1 228 20 20 28 -9
31 -107z m90 0 c1 -60 7 -107 12 -107 6 0 10 -7 10 -15 0 -20 -46 -20 -54 1
-8 22 -8 219 1 228 20 20 28 -9 31 -107z m450 65 c3 -39 4 -41 27 -30 57 26
113 -29 101 -100 -9 -58 -30 -72 -103 -70 l-63 2 0 116 c0 64 3 120 7 124 15
15 28 -3 31 -42z m392 -58 c0 -90 3 -109 18 -120 16 -12 16 -13 0 -19 -42 -17
-48 -2 -48 125 0 100 2 120 15 120 12 0 15 -18 15 -106z m90 0 c0 -90 3 -109
18 -120 16 -12 16 -13 0 -19 -42 -17 -48 -2 -48 125 0 100 2 120 15 120 12 0
15 -18 15 -106z m210 76 c0 -13 -7 -20 -20 -20 -13 0 -20 7 -20 20 0 13 7 20
20 20 13 0 20 -7 20 -20z m400 -5 c0 -33 37 -36 42 -3 4 29 28 36 28 7 0 -12
8 -28 18 -35 16 -13 16 -14 -5 -20 -13 -3 -23 -14 -23 -23 0 -9 -3 -26 -6 -38
-5 -17 -2 -23 10 -23 23 0 20 -27 -4 -33 -12 -3 -20 -14 -20 -26 0 -12 -6 -21
-15 -21 -9 0 -15 9 -15 25 0 33 -37 36 -42 3 -4 -29 -28 -36 -28 -7 0 12 -8
28 -17 35 -17 13 -17 14 5 20 12 3 22 14 22 23 0 9 3 26 6 39 5 16 2 22 -10
22 -23 0 -20 27 4 33 12 3 20 14 20 26 0 12 6 21 15 21 9 0 15 -9 15 -25z
m225 -95 c0 -101 -2 -115 -17 -118 -16 -3 -18 6 -18 92 0 87 -8 114 -25 86 -9
-15 -35 -12 -35 4 0 17 59 55 80 53 12 -2 15 -23 15 -117z m255 105 c0 -12
-13 -15 -55 -15 -41 0 -55 -4 -55 -14 0 -8 -3 -21 -6 -30 -5 -14 1 -15 39 -10
37 5 48 3 66 -15 29 -29 28 -87 -1 -118 -32 -34 -99 -32 -128 4 -28 36 -10 56
23 25 27 -26 59 -28 81 -6 32 32 8 84 -39 84 -13 0 -27 -4 -30 -10 -3 -5 -15
-10 -26 -10 -16 0 -19 7 -19 43 0 83 4 87 81 87 55 0 69 -3 69 -15z m-4900
-21 c0 -17 6 -28 20 -31 11 -3 20 -10 20 -15 0 -5 -9 -12 -20 -15 -17 -4 -20
-14 -20 -58 0 -45 3 -53 21 -58 27 -7 15 -27 -16 -27 -32 0 -45 27 -45 88 0
35 -4 52 -15 56 -8 3 -15 10 -15 16 0 5 7 10 15 10 8 0 15 8 15 18 0 19 18 42
32 42 4 0 8 -12 8 -26z m-292 -41 c16 -14 21 -34 25 -90 3 -56 1 -73 -9 -73
-7 0 -16 5 -19 10 -4 7 -12 7 -25 0 -52 -28 -115 4 -102 52 5 22 57 48 97 48
27 0 32 9 13 28 -17 17 -48 15 -70 -5 -19 -17 -43 -7 -30 13 23 35 88 44 120
17z m180 1 c24 -17 30 -44 8 -44 -7 0 -19 7 -26 15 -16 19 -55 16 -55 -4 0 -8
19 -21 43 -29 53 -17 70 -44 47 -78 -29 -44 -135 -27 -135 22 0 19 26 18 34
-2 4 -10 16 -14 38 -12 45 4 42 28 -6 44 -49 17 -66 31 -66 55 0 23 37 49 70
49 14 0 36 -7 48 -16z m282 -4 c0 -15 -7 -20 -25 -20 -32 0 -45 -26 -45 -89 0
-39 -4 -51 -15 -51 -12 0 -15 16 -15 86 l0 86 24 -6 c14 -3 28 -2 31 4 12 19
45 11 45 -10z m173 -11 c24 -29 22 -90 -4 -123 -16 -21 -29 -26 -64 -26 -35 0
-48 5 -64 26 -35 44 -23 120 23 143 31 15 88 5 109 -20z m453 23 c23 -15 34
-52 34 -111 0 -46 -4 -61 -14 -61 -8 0 -16 6 -19 13 -4 10 -7 10 -18 0 -17
-16 -81 -17 -97 -1 -18 18 -15 52 6 71 10 9 37 19 60 23 44 7 50 12 30 32 -16
16 -43 15 -58 -3 -16 -19 -40 -19 -40 -1 0 33 83 60 116 38z m379 -17 c14 -13
25 -36 25 -50 0 -24 -2 -25 -58 -25 -66 0 -76 -5 -61 -31 12 -23 61 -25 79 -4
14 17 40 20 40 5 0 -24 -41 -50 -80 -50 -55 0 -80 26 -80 85 0 57 32 95 80 95
19 0 40 -9 55 -25z m678 5 c34 -27 44 -78 23 -118 -17 -33 -34 -42 -79 -42
-61 1 -97 55 -77 116 21 62 83 83 133 44z m355 4 c23 -16 30 -44 11 -44 -6 0
-17 7 -26 16 -18 18 -58 15 -58 -5 0 -8 18 -20 39 -27 68 -24 82 -49 49 -86
-32 -36 -133 -15 -133 29 0 18 29 17 36 -2 4 -9 19 -15 41 -15 48 0 41 29 -12
47 -37 12 -65 36 -65 55 0 4 9 17 20 28 24 24 67 26 98 4z m469 1 c68 -48 38
-165 -42 -165 -48 0 -64 8 -81 42 -43 83 49 175 123 123z m377 -7 c14 -13 28
-35 32 -50 l6 -28 -67 0 c-63 0 -66 -1 -63 -22 4 -29 58 -38 78 -14 15 19 40
21 40 4 0 -27 -34 -48 -76 -48 -54 0 -84 33 -84 92 0 76 79 115 134 66z m564
5 c16 -14 21 -34 25 -90 3 -56 1 -73 -9 -73 -7 0 -16 5 -19 10 -4 7 -12 7 -25
0 -52 -28 -115 4 -102 52 5 22 57 48 97 48 23 0 24 2 15 20 -13 24 -47 26 -71
4 -20 -18 -41 -11 -32 12 13 34 89 44 121 17z m-3069 -45 c9 -26 19 -50 23
-53 3 -4 14 18 24 49 13 41 23 56 36 56 10 0 18 -1 18 -3 0 -2 -13 -39 -29
-83 -21 -59 -34 -80 -49 -82 -12 -2 -21 4 -24 15 -3 10 -17 49 -32 86 -26 68
-26 68 -4 65 15 -2 26 -16 37 -50z m726 5 c10 -27 21 -52 25 -57 5 -4 16 17
26 48 13 41 23 56 36 56 10 0 18 -3 18 -7 0 -21 -87 -226 -98 -230 -21 -9 -25
3 -11 40 11 31 9 42 -16 103 -15 38 -29 75 -32 82 -3 7 3 12 15 12 14 0 24
-13 37 -47z m690 -8 c10 -30 21 -55 25 -55 3 0 14 25 24 55 13 43 21 55 38 55
12 0 18 -5 15 -12 -67 -176 -91 -228 -103 -228 -17 0 -18 20 -4 52 9 19 5 37
-20 97 -35 86 -36 91 -12 91 13 0 23 -16 37 -55z m459 -1 c10 -31 21 -53 24
-49 4 3 14 27 23 53 9 27 23 48 32 50 23 5 21 -10 -12 -93 -20 -53 -32 -70
-46 -70 -14 0 -26 17 -46 70 -33 84 -34 95 -11 95 13 0 23 -15 36 -56z m735 4
c9 -26 19 -49 23 -53 3 -4 15 18 26 47 14 37 26 54 40 56 19 3 17 -5 -23 -107
-51 -130 -52 -131 -71 -131 -17 0 -17 3 0 44 12 28 12 38 -1 67 -8 19 -23 56
-34 82 l-19 48 22 -3 c16 -2 26 -16 37 -50z m861 -48 c0 -87 -3 -103 -20 -120
-23 -23 -50 -26 -50 -6 0 8 7 16 15 20 12 4 15 26 15 106 0 93 1 100 20 100
19 0 20 -7 20 -100z m86 45 c10 -30 21 -55 24 -55 3 0 14 25 24 55 13 42 22
55 36 55 18 0 18 -5 -10 -81 -17 -44 -30 -82 -30 -85 0 -2 -9 -4 -19 -4 -15 0
-26 19 -50 81 -17 44 -31 83 -31 85 0 2 9 4 19 4 15 0 24 -13 37 -55z m-3176
-549 c0 -59 4 -108 10 -111 20 -12 9 -26 -17 -23 l-28 3 -3 118 c-3 112 -2
117 18 117 19 0 20 -6 20 -104z m285 80 c0 -22 -14 -29 -34 -17 -19 12 -6 43
16 39 10 -2 18 -12 18 -22z m1165 -17 c0 -37 2 -40 23 -33 65 23 107 -10 107
-83 0 -60 -36 -99 -83 -88 -18 4 -42 7 -54 6 -23 -1 -23 1 -23 119 0 100 3
120 15 120 11 0 15 -11 15 -41z m359 27 c51 -27 64 -89 30 -145 -17 -29 -24
-33 -52 -28 -18 2 -40 0 -49 -5 -24 -12 -56 6 -63 35 -13 50 43 119 82 102 10
-5 26 -7 36 -6 15 2 17 -2 11 -26 -4 -15 -11 -38 -15 -51 -12 -31 -12 -32 7
-32 8 0 22 16 30 35 18 44 4 83 -39 103 -70 34 -137 -15 -137 -99 0 -39 4 -51
26 -68 35 -28 105 -28 150 -1 43 27 54 8 12 -22 -25 -17 -46 -23 -90 -23 -69
0 -107 24 -126 80 -36 109 83 205 187 151z m831 -5 c0 -26 -17 -36 -35 -21
-18 15 -8 40 16 40 12 0 19 -7 19 -19z m90 -85 c0 -59 4 -108 10 -111 20 -12
9 -26 -17 -23 l-28 3 -3 118 c-3 112 -2 117 18 117 19 0 20 -6 20 -104z
m-3692 17 c25 -35 8 -44 -33 -17 -25 17 -55 13 -55 -6 0 -6 22 -20 50 -32 63
-26 74 -52 35 -86 -22 -19 -36 -23 -63 -19 -41 7 -62 23 -62 48 0 24 4 24 39
-2 19 -14 36 -19 50 -14 34 10 24 33 -19 46 -50 15 -74 40 -65 69 13 41 95 50
123 13z m182 1 c9 -9 17 -42 20 -84 5 -62 3 -70 -12 -70 -10 0 -18 4 -18 9 0
6 -12 3 -27 -5 -36 -18 -53 -18 -81 2 -45 32 -18 84 49 93 30 4 45 11 47 23 5
24 -34 33 -63 14 -31 -20 -45 -20 -45 -1 0 21 58 46 90 39 14 -3 32 -12 40
-20z m175 13 c15 -12 23 -12 46 0 24 12 33 12 56 1 27 -13 28 -17 31 -91 2
-64 0 -77 -13 -77 -12 0 -15 13 -15 59 0 55 -15 91 -38 91 -25 -1 -36 -24 -40
-84 -3 -48 -8 -66 -18 -66 -10 0 -14 15 -14 59 0 60 -18 97 -44 88 -20 -6 -36
-51 -36 -99 0 -36 -4 -48 -15 -48 -12 0 -15 16 -15 86 0 84 0 86 23 81 12 -4
29 -2 37 3 21 13 33 12 55 -3z m508 -19 c15 -18 17 -28 17 -65 0 -5 -13 -8
-28 -9 -81 -2 -92 -4 -92 -19 0 -9 11 -21 25 -27 20 -9 28 -8 43 5 20 18 52
23 52 8 0 -5 -12 -19 -27 -31 -34 -27 -89 -22 -115 11 -21 25 -23 96 -4 121
31 41 96 44 129 6z m272 7 c22 -21 25 -33 25 -90 0 -58 -2 -65 -20 -65 -18 0
-20 7 -20 65 0 55 -3 66 -21 75 -16 9 -25 8 -40 -6 -15 -13 -19 -31 -19 -76 0
-51 -2 -59 -17 -56 -15 3 -18 15 -18 83 l0 80 32 0 c18 1 35 4 39 8 14 13 35
7 59 -18z m269 15 c34 -13 59 -64 52 -105 -16 -86 -129 -99 -162 -19 -19 46
-4 98 34 119 32 17 43 18 76 5z m184 -13 c2 -11 -3 -17 -15 -17 -32 0 -43 -21
-43 -82 0 -51 -2 -58 -20 -58 -18 0 -20 7 -20 86 0 86 0 86 24 82 14 -3 31 -1
38 3 18 12 32 6 36 -14z m152 8 c89 -46 37 -191 -61 -170 -78 17 -91 136 -19
172 32 16 45 16 80 -2z m213 3 l27 2 0 -100 c0 -87 -3 -103 -20 -120 -28 -28
-93 -27 -121 1 -28 28 -9 51 20 25 11 -10 31 -16 48 -14 22 2 29 9 31 30 3 26
2 27 -32 21 -45 -7 -82 16 -91 56 -12 57 42 120 90 104 11 -4 32 -6 48 -5z
m200 -17 c10 -9 19 -30 20 -47 l2 -29 -56 3 c-58 4 -74 -4 -63 -32 9 -24 41
-29 74 -10 16 10 33 14 37 10 12 -12 -45 -56 -73 -56 -38 0 -84 51 -84 92 0
82 87 124 143 69z m850 19 l29 0 -4 -106 c-3 -91 -6 -108 -22 -120 -43 -31
-136 -8 -136 33 0 18 25 17 40 -3 8 -9 25 -14 44 -12 27 3 31 7 34 38 3 28 1
33 -9 23 -23 -23 -75 -16 -98 13 -30 39 -27 80 9 116 25 24 36 29 58 24 15 -4
40 -7 55 -6z m182 -3 c15 -12 23 -12 46 0 24 12 33 12 56 1 27 -13 28 -17 31
-91 2 -64 0 -77 -13 -77 -12 0 -15 13 -15 59 0 55 -15 91 -38 91 -25 -1 -36
-24 -40 -84 -3 -48 -8 -66 -18 -66 -10 0 -14 15 -14 59 0 60 -18 97 -44 88
-20 -6 -36 -51 -36 -99 0 -36 -4 -48 -15 -48 -12 0 -15 16 -15 86 0 84 0 86
23 81 12 -4 29 -2 37 3 21 13 33 12 55 -3z m311 -10 c6 -6 14 -45 17 -84 5
-58 3 -73 -8 -73 -8 0 -17 4 -20 10 -4 6 -16 3 -31 -6 -37 -25 -88 -8 -92 30
-5 40 23 66 69 66 42 0 57 13 39 35 -16 19 -44 19 -60 0 -13 -16 -50 -21 -50
-7 0 11 30 37 50 45 21 9 72 -1 86 -16z m467 -4 c20 -19 23 -43 4 -43 -7 0
-20 9 -30 20 -34 40 -77 12 -77 -50 0 -29 5 -42 20 -50 22 -12 60 -5 60 11 0
5 9 9 20 9 27 0 25 -15 -6 -39 -60 -47 -134 -4 -134 77 0 75 87 115 143 65z
m190 -2 c26 -26 33 -85 13 -116 -49 -75 -156 -44 -156 44 0 55 8 71 44 87 36
16 73 10 99 -15z m178 15 c22 -11 29 -11 44 0 27 20 43 17 70 -11 22 -21 25
-33 25 -90 0 -58 -2 -65 -20 -65 -18 0 -20 7 -20 65 0 55 -3 66 -21 75 -35 19
-49 -3 -49 -76 0 -57 -2 -64 -20 -64 -18 0 -20 7 -20 64 0 73 -14 95 -49 76
-18 -9 -21 -20 -21 -75 0 -58 -2 -65 -20 -65 -18 0 -20 7 -20 86 0 86 0 86 24
82 14 -3 31 -1 38 3 18 12 29 11 59 -5z m-3759 -62 c4 -79 22 -101 57 -70 17
15 21 31 21 78 0 51 2 58 20 58 18 0 20 -7 20 -86 l0 -86 -27 5 c-15 3 -36 1
-45 -4 -26 -14 -64 -1 -77 27 -6 14 -11 52 -11 84 0 53 2 60 20 60 17 0 19 -8
22 -66z m668 -43 c0 -114 -8 -137 -46 -129 -25 5 -28 25 -4 31 18 5 20 13 20
106 0 83 3 101 15 101 12 0 15 -19 15 -109z m1014 44 l20 -60 20 63 c15 46 25
62 38 62 23 0 23 -1 -10 -90 -21 -57 -33 -76 -49 -78 -13 -2 -22 4 -25 15 -3
10 -17 49 -32 86 -26 68 -26 68 -4 65 16 -2 26 -17 42 -63z m1346 -20 c0 -78
-2 -85 -20 -85 -18 0 -20 7 -20 85 0 78 2 85 20 85 18 0 20 -7 20 -85z m178
-63 c3 -17 -2 -22 -17 -22 -14 0 -21 6 -21 18 0 38 33 41 38 4z m-2068 -372
c0 -38 1 -39 24 -29 41 19 74 4 86 -39 17 -54 10 -126 -12 -130 -16 -3 -18 5
-18 60 0 66 -10 88 -42 88 -25 0 -38 -31 -38 -95 0 -48 -3 -56 -17 -53 -16 3
-18 18 -21 117 -2 83 1 117 10 122 20 12 28 0 28 -41z m480 -1 c0 -37 12 -51
25 -29 10 17 54 11 75 -10 16 -16 20 -33 20 -91 0 -62 -2 -70 -17 -67 -15 3
-19 16 -21 70 -3 58 -6 68 -24 74 -34 11 -58 -27 -58 -92 0 -41 -4 -54 -15
-54 -12 0 -15 20 -15 118 0 65 3 122 6 125 14 13 24 -6 24 -44z m198 -62 c1
-60 7 -107 12 -107 6 0 10 -7 10 -15 0 -20 -46 -20 -54 1 -8 22 -8 219 1 228
20 20 28 -9 31 -107z m382 65 c4 -34 8 -40 20 -32 23 15 51 12 72 -7 24 -22
27 -163 3 -163 -12 0 -15 13 -15 56 0 63 -13 94 -38 94 -31 0 -42 -22 -42 -87
0 -56 -2 -63 -20 -63 -19 0 -20 7 -20 118 0 65 3 122 7 126 15 14 28 -2 33
-42z m-1654 -52 c21 -49 41 -90 45 -90 4 0 24 41 45 90 32 77 40 90 60 90 24
0 24 -1 24 -120 0 -113 -1 -120 -20 -120 -18 0 -20 7 -20 83 l-1 82 -36 -82
c-24 -56 -42 -83 -53 -83 -11 0 -27 26 -51 83 l-34 82 -3 -83 c-2 -72 -5 -83
-20 -80 -14 3 -17 18 -20 107 -3 118 0 131 27 131 15 0 28 -21 57 -90z m384
70 c23 -23 26 -49 7 -75 -12 -15 -11 -21 5 -37 24 -24 23 -63 -2 -88 -18 -18
-31 -20 -98 -18 l-77 3 -3 104 c-1 58 0 111 2 118 4 9 27 13 76 13 57 0 74 -4
90 -20z m415 0 c0 -8 -10 -16 -22 -18 -18 -3 -23 2 -23 18 0 16 5 21 23 18 12
-2 22 -10 22 -18z m570 0 c0 -8 -10 -16 -22 -18 -22 -3 -32 16 -16 32 12 11
38 2 38 -14z m495 -26 c0 -17 5 -24 20 -24 11 0 20 -5 20 -11 0 -6 -9 -13 -20
-16 -17 -5 -20 -14 -20 -59 0 -41 4 -54 15 -54 8 0 15 -7 15 -15 0 -18 -41
-20 -58 -3 -7 7 -12 38 -12 70 0 45 -3 58 -15 58 -8 0 -15 6 -15 14 0 8 7 16
15 20 8 3 15 14 15 25 0 19 18 32 33 24 4 -2 7 -15 7 -29z m-887 -24 l27 0 0
-93 c0 -80 -3 -98 -21 -121 -16 -20 -29 -26 -60 -26 -38 0 -79 26 -79 50 0 15
26 12 40 -5 7 -8 25 -15 40 -15 29 0 40 15 40 53 0 16 -3 18 -12 9 -20 -20
-67 -14 -93 13 -28 27 -32 63 -10 105 18 34 31 41 70 34 17 -2 42 -4 58 -4z
m542 0 c3 -6 17 -7 31 -4 l24 6 0 -101 c0 -119 -12 -141 -80 -141 -39 0 -80
26 -80 50 0 16 37 12 44 -5 3 -9 18 -15 36 -15 24 0 33 6 40 26 14 35 14 35
-29 28 -49 -8 -76 7 -90 49 -14 41 -2 78 31 101 25 18 64 21 73 6z m523 -6
c24 -17 30 -44 8 -44 -7 0 -19 7 -26 15 -16 19 -55 16 -55 -4 0 -8 18 -20 39
-27 68 -24 82 -49 49 -86 -21 -23 -89 -24 -115 -1 -22 20 -24 43 -3 43 8 0 15
-5 15 -10 0 -14 40 -28 63 -22 30 8 15 34 -28 49 -37 12 -65 36 -65 55 0 4 9
17 20 28 24 24 67 26 98 4z m-1248 -79 c0 -78 -2 -85 -20 -85 -18 0 -20 7 -20
85 0 78 2 85 20 85 18 0 20 -7 20 -85z m570 0 c0 -69 -3 -85 -15 -85 -12 0
-15 16 -15 85 0 69 3 85 15 85 12 0 15 -16 15 -85z m-1135 -386 c19 -23 23
-35 15 -43 -7 -7 -18 -3 -36 17 -53 58 -134 20 -134 -63 0 -76 79 -121 125
-70 10 11 27 20 37 20 16 0 17 -3 8 -20 -29 -54 -122 -70 -166 -29 -36 34 -50
90 -35 138 16 55 52 81 111 81 42 0 52 -4 75 -31z m95 -74 c0 -63 4 -105 10
-105 6 0 10 -7 10 -15 0 -9 -9 -15 -25 -15 l-25 0 0 120 c0 100 3 120 15 120
12 0 15 -18 15 -105z m845 85 c20 -23 22 -74 4 -97 -7 -8 -32 -28 -56 -44 -24
-17 -43 -34 -43 -39 0 -6 27 -10 61 -10 44 0 60 -3 57 -12 -3 -9 -32 -14 -86
-16 -73 -2 -82 -1 -82 15 0 9 30 45 66 79 59 54 66 65 60 88 -6 23 -11 27 -39
24 -22 -2 -35 -11 -44 -28 -7 -14 -18 -25 -25 -25 -20 0 -11 48 13 68 29 24
91 22 114 -3z m185 10 c22 -12 40 -61 40 -110 0 -95 -52 -142 -125 -114 -57
22 -60 204 -3 227 22 9 68 7 88 -3z m220 -10 c35 -35 26 -69 -35 -125 -30 -29
-55 -55 -55 -58 0 -4 25 -7 55 -7 42 0 55 -3 55 -15 0 -12 -16 -15 -86 -15
-84 0 -85 0 -79 23 6 21 36 52 99 105 20 17 26 30 24 50 -2 22 -9 28 -36 30
-29 3 -35 0 -45 -27 -11 -29 -26 -39 -40 -25 -9 9 12 57 30 72 26 19 90 15
113 -8z m204 -2 c9 -12 16 -26 16 -30 0 -14 -38 -8 -44 7 -8 22 -63 19 -76 -4
-5 -11 -10 -27 -10 -36 0 -12 4 -14 19 -5 30 15 56 12 85 -11 33 -26 37 -88 6
-119 -22 -22 -78 -27 -110 -10 -51 27 -52 158 -3 212 24 27 97 24 117 -4z
m-1279 -52 c15 -11 21 -31 26 -88 3 -40 4 -75 2 -78 -2 -2 -12 1 -22 7 -11 7
-23 8 -32 2 -18 -11 -70 -11 -88 0 -19 12 -17 62 4 77 10 7 37 16 61 20 39 5
42 8 33 25 -12 23 -46 25 -70 3 -20 -18 -41 -11 -32 12 12 32 85 44 118 20z
m183 -2 c24 -17 30 -44 8 -44 -7 0 -19 7 -26 15 -16 19 -55 16 -55 -4 0 -8 19
-21 43 -29 53 -17 70 -44 48 -76 -18 -29 -53 -36 -97 -22 -23 8 -35 18 -37 34
-4 24 22 32 31 8 8 -19 43 -26 63 -11 21 15 12 31 -23 40 -42 10 -73 33 -73
55 0 24 36 50 70 50 14 0 36 -7 48 -16z m170 0 c20 -14 33 -51 15 -42 -5 2
-20 10 -35 17 -29 15 -62 8 -56 -11 2 -6 22 -18 44 -25 52 -18 68 -35 60 -66
-14 -57 -146 -48 -146 10 0 18 18 16 46 -6 27 -21 67 -17 62 6 -2 9 -23 23
-48 32 -38 14 -46 21 -48 46 -6 50 57 74 106 39z"/>
<path d="M2184 2755 c-8 -21 4 -35 30 -35 25 0 46 17 46 37 0 19 -69 17 -76
-2z"/>
<path d="M2866 2824 c-9 -24 -9 -24 39 -24 25 0 45 4 45 8 0 31 -73 45 -84 16z"/>
<path d="M3600 2824 c-8 -8 -13 -28 -13 -44 0 -16 5 -36 13 -44 15 -19 51 -21
68 -4 16 16 16 80 0 96 -17 17 -53 15 -68 -4z"/>
<path d="M3926 2818 c-9 -12 -16 -29 -16 -38 0 -45 59 -77 88 -48 16 16 16 80
0 96 -19 19 -55 14 -72 -10z"/>
<path d="M4120 2819 c-27 -50 20 -104 66 -74 26 16 31 44 14 76 -15 27 -66 26
-80 -2z"/>
<path d="M4320 2821 c-10 -20 -8 -21 35 -21 39 0 46 3 43 18 -5 27 -64 29 -78
3z"/>
<path d="M2632 2238 c-13 -13 -16 -66 -6 -92 7 -19 55 -21 72 -4 17 17 15 74
-4 92 -18 19 -45 21 -62 4z"/>
<path d="M4402 2238 c-13 -13 -16 -66 -6 -92 7 -19 55 -21 72 -4 17 17 15 74
-4 92 -18 19 -45 21 -62 4z"/>
<path d="M5466 2238 c-11 -41 -7 -58 13 -58 18 0 31 25 31 63 0 26 -36 22 -44
-5z"/>
<path d="M680 2165 c-10 -12 -10 -18 0 -30 7 -8 19 -15 26 -15 19 0 56 38 49
50 -10 15 -61 12 -75 -5z"/>
<path d="M1306 2235 c-19 -19 -21 -76 -4 -93 7 -7 24 -12 39 -12 20 0 30 7 39
29 24 58 -33 116 -74 76z"/>
<path d="M1783 2173 c-18 -7 -16 -42 2 -49 19 -8 65 22 65 41 0 15 -40 20 -67
8z"/>
<path d="M2152 2238 c-24 -24 -13 -38 27 -38 46 0 58 12 35 34 -18 19 -45 21
-62 4z"/>
<path d="M2826 2228 c-31 -44 -13 -98 32 -98 36 0 52 17 52 55 0 57 -55 85
-84 43z"/>
<path d="M3657 2232 c-35 -38 -14 -102 33 -102 48 0 69 69 32 103 -24 22 -45
21 -65 -1z"/>
<path d="M4032 2238 c-24 -24 -13 -38 27 -38 46 0 58 12 35 34 -18 19 -45 21
-62 4z"/>
<path d="M4590 2165 c-10 -12 -10 -18 0 -30 7 -8 19 -15 26 -15 16 0 54 35 54
50 0 16 -66 12 -80 -5z"/>
<path d="M3456 1658 c-9 -12 -16 -32 -16 -43 0 -29 28 -65 50 -65 23 0 50 36
50 67 0 26 -32 63 -54 63 -8 0 -22 -10 -30 -22z"/>
<path d="M3712 1678 c-6 -7 -13 -25 -17 -40 -5 -21 -3 -29 10 -34 22 -9 45 16
48 51 2 32 -22 46 -41 23z"/>
<path d="M1125 1596 c-21 -15 -14 -46 10 -46 28 0 55 20 55 40 0 24 -36 27
-65 6z"/>
<path d="M1808 1669 c-35 -20 -21 -39 27 -39 49 0 55 8 27 33 -21 19 -30 20
-54 6z"/>
<path d="M2370 1660 c-11 -11 -20 -31 -20 -45 0 -27 31 -65 53 -65 45 0 64 87
25 114 -29 20 -34 20 -58 -4z"/>
<path d="M2702 1664 c-40 -27 -20 -114 26 -114 21 0 52 39 52 65 0 23 -31 65
-48 65 -4 0 -18 -7 -30 -16z"/>
<path d="M2896 1664 c-20 -19 -21 -68 -2 -83 8 -7 27 -11 43 -9 25 3 28 8 31
43 5 56 -37 85 -72 49z"/>
<path d="M3096 1664 c-26 -25 -19 -34 29 -34 49 0 62 20 26 40 -27 14 -37 13
-55 -6z"/>
<path d="M3946 1664 c-19 -18 -21 -65 -4 -82 7 -7 21 -12 33 -12 30 0 45 19
45 57 0 47 -43 69 -74 37z"/>
<path d="M4435 1594 c-18 -19 -4 -44 25 -44 19 0 50 30 50 48 0 18 -56 14 -75
-4z"/>
<path d="M5090 1660 c-11 -11 -20 -31 -20 -45 0 -27 31 -65 53 -65 42 0 63 83
29 113 -24 22 -38 21 -62 -3z"/>
<path d="M2400 1154 l0 -35 53 3 c46 3 52 6 55 27 5 30 -12 41 -65 41 -43 0
-43 0 -43 -36z"/>
<path d="M2407 1084 c-4 -4 -7 -23 -7 -41 l0 -34 51 3 c59 3 82 24 63 56 -11
18 -93 30 -107 16z"/>
<path d="M3032 1118 c-7 -7 -12 -26 -12 -43 0 -36 15 -55 45 -55 30 0 45 19
45 55 0 36 -15 55 -45 55 -12 0 -26 -5 -33 -12z"/>
<path d="M3606 1115 c-19 -19 -21 -66 -4 -83 20 -20 56 -14 74 12 32 50 -29
112 -70 71z"/>
<path d="M3420 665 c-16 -20 -17 -130 0 -150 17 -21 57 -19 70 4 5 11 10 43
10 71 0 28 -5 60 -10 71 -13 23 -52 25 -70 4z"/>
<path d="M3826 584 c-19 -18 -21 -55 -4 -72 22 -22 67 -14 80 13 22 50 -38 97
-76 59z"/>
<path d="M2560 535 c-10 -12 -10 -18 0 -30 7 -8 19 -15 26 -15 19 0 56 38 49
50 -10 15 -61 12 -75 -5z"/>
</g>
</svg>
